<?xml version="1.0" encoding="iso-8859-1"?>
<!-- Uploaded to: SVG Repo, www.svgrepo.com, Generator: SVG Repo Mixer Tools -->
<svg version="1.1" id="Layer_1" xmlns="http://www.w3.org/2000/svg" xmlns:xlink="http://www.w3.org/1999/xlink" 
	 viewBox="0 0 502 502" xml:space="preserve">
<g>
	<rect x="39.033" y="154.041" style="fill:#5CC9C1;" width="423.934" height="253.294"/>
	<rect x="10" y="94.665" style="fill:#FFF9E6;" width="482" height="59.191"/>
	<rect x="342.986" y="299.352" style="fill:#FFF9E6;" width="62.657" height="51.992"/>
	<g>
		<path d="M492,84.665H10c-5.522,0-10,4.478-10,10v59.191c0,5.522,4.478,10,10,10h19.033v243.479c0,5.522,4.478,10,10,10h423.934
			c5.522,0,10-4.478,10-10V163.856H492c5.522,0,10-4.478,10-10V94.665C502,89.143,497.522,84.665,492,84.665z M452.967,397.335
			H49.033V164.041h403.934L452.967,397.335L452.967,397.335z M482,143.856H20v-39.191h462V143.856z"/>
		<path d="M342.985,361.344h62.657c5.522,0,10-4.478,10-10v-51.991c0-5.522-4.478-10-10-10h-62.657c-5.522,0-10,4.478-10,10v51.991
			C332.985,356.866,337.463,361.344,342.985,361.344z M352.985,309.353h42.657v31.991h-42.657V309.353z"/>
		<path d="M176.345,312.019h54.658c5.522,0,10-4.478,10-10s-4.478-10-10-10h-54.658c-5.522,0-10,4.478-10,10
			S170.822,312.019,176.345,312.019z"/>
		<path d="M176.345,361.344h110.649c5.522,0,10-4.478,10-10s-4.478-10-10-10H176.345c-5.522,0-10,4.478-10,10
			S170.822,361.344,176.345,361.344z"/>
		<path d="M270.997,312.019h15.997c5.522,0,10-4.478,10-10s-4.478-10-10-10h-15.997c-5.522,0-10,4.478-10,10
			S265.475,312.019,270.997,312.019z"/>
	</g>
</g>
</svg>
