<?xml version="1.0" encoding="utf-8"?>
<!-- Uploaded to: SVG Repo, www.svgrepo.com, Generator: SVG Repo Mixer Tools -->
<svg width="800px" height="800px" viewBox="0 0 1024 1024" class="icon"  version="1.1" xmlns="http://www.w3.org/2000/svg"><path d="M620.056762 82.515942c-45.322284 0-84.759275 25.544915-104.759851 62.974067-20.000576-37.430176-59.437567-62.974067-104.759851-62.974067-65.468252 0-118.727694 53.259443-118.727695 118.727695 0 25.93092 8.21156 50.572768 23.755164 71.258323l22.329915-16.778409c-11.873998-15.809813-18.148367-34.647256-18.148368-54.480938 0-50.060825 39.64484-90.792007 89.705665-90.792007s89.705665 40.731182 89.705665 90.792007v59.454973h26.621019v-59.454973c0-50.060825 42.474859-90.792007 92.535684-90.792007s91.664358 40.731182 91.664357 90.792007c0 19.826515-5.839218 38.663958-17.713216 54.466604l22.561313 16.778408c15.530293-20.685555 23.850385-45.32126 23.850385-71.245012-0.001024-65.467228-53.151935-118.726671-118.620186-118.726671z" fill="#FF4C48" /><path d="M427.483386 525.884909H263.872654c-21.761659 0-39.766682-13.310509-41.710016-33.788216h-3.550835v-34.812101h208.872607v68.600317zM595.400579 457.284592h209.896492v39.931528h3.133089c-1.943334 23.549362-19.948358 28.668789-41.710017 28.668789H595.400579v-68.600317z" fill="#E0E0E0" /><path d="M410.536036 236.16427c23.107044 0 41.903531-18.796487 41.903531-41.903531s-18.796487-41.903531-41.903531-41.903531-41.903531 18.796487-41.903531 41.903531 18.796487 41.903531 41.903531 41.903531z m0-55.872399c7.700642 0 13.967844 6.268226 13.967844 13.967844s-6.268226 13.967844-13.967844 13.967844-13.967844-6.268226-13.967844-13.967844 6.268226-13.967844 13.967844-13.967844zM620.056762 236.16427c23.107044 0 41.904555-18.796487 41.904554-41.903531s-18.796487-41.903531-41.904554-41.903531c-23.107044 0-41.903531 18.796487-41.903531 41.903531s18.796487 41.903531 41.903531 41.903531z m0-55.872399c7.700642 0 13.967844 6.268226 13.967843 13.967844s-6.268226 13.967844-13.967843 13.967844-13.967844-6.268226-13.967844-13.967844 6.267202-13.967844 13.967844-13.967844zM878.46494 248.411986H152.127858c-46.214088 0-88.123762 39.313101-88.123762 85.528213v83.808085c0 23.107044 23.112163 39.536308 46.220231 39.536308h10.093461v421.40765c0 38.507303 35.206297 68.009535 73.714624 68.009535h642.528997c38.507303 0 66.005791-29.502232 66.005791-68.009535V457.284592h17.802295c23.107044 0 38.511399-16.429264 38.511398-39.536308v-83.808085c-0.001024-46.214088-34.201865-85.528213-80.415953-85.528213z m-311.73315 28.668789v153.582799h-111.6035v-153.582799h111.6035z m28.668789 423.888524h104.436303v-27.644903h-104.436303v-41.979299h281.568464v112.627386h-281.568464v-43.003184z m-503.75158-283.221015v-83.808085c0-30.807686 29.671173-56.859424 60.478859-56.859424h275.355528v153.582799H110.224327c-7.700642 0-18.575328-5.214648-18.575328-12.91529z m335.834387 255.576112h-104.436303v27.644903h104.436303v43.003184h-277.472923v-112.627386h277.472923v41.979299z m-277.472923-216.039804h277.472923v146.415602h-277.472923v-146.415602z m44.021949 460.748396c-23.107044 0-44.02195-16.233702-44.021949-39.340746V771.617387h277.472923v146.415601H194.032412z m261.095878 0v-460.748396h111.6035v460.748396h-111.6035z m421.840753-39.340746c0 23.107044-17.301614 39.340746-40.408658 39.340746H595.400579v-146.415601h281.568464v107.074855z m0-274.992048h-281.568464v-146.415602h281.568464v146.415602z m53.242037-185.95191c0 7.700642-2.141968 12.915289-9.842609 12.91529H595.400579v-153.582799h283.064361c30.807686 0 51.74614 26.051738 51.74614 56.859424v83.808085z" fill="#262626" /><path d="M499.155359 603.700194h26.621018v167.917193h-26.621018zM499.155359 310.868991h26.621018v84.982482h-26.621018z" fill="#262626" /></svg>